# xmcd
#
# Track frame offsets:
#	150
#	15947
#	38609
#	66037
#
# Disc length: 1200 seconds
#
# Revision: 1
# Processed by: cddbd v1.5.1PL0 Copyright (c) Steve Scherf et al.
# Submitted via: EasyCDDAExtractor 7.0.5.4
#
DISCID=2104ae04
DTITLE=Kasey Chambers - Hollywood - Single
DYEAR=2004
DGENRE=Country
TTITLE0=Hollywood
TTITLE1=Top Of The World - Live
TTITLE2=Like A River - Live
TTITLE3=Data
EXTD=Kasey Chambers Hollywood single\n
EXTT0=
EXTT1=
EXTT2=
EXTT3=
PLAYORDER=
